<svg width="72" height="34" viewBox="0 0 72 34" fill="none" xmlns="http://www.w3.org/2000/svg">
<rect width="72" height="34" rx="17" fill="#EAC645"/>
<path d="M16.952 22V12.2H18.744V16.274H23.14V12.2H24.932V22H23.14V17.73H18.744V22H16.952ZM30.8688 22.168C29.8888 22.168 29.0301 21.9533 28.2928 21.524C27.5648 21.0947 26.9908 20.502 26.5708 19.746C26.1601 18.9807 25.9548 18.0987 25.9548 17.1C25.9548 16.1013 26.1601 15.224 26.5708 14.468C26.9908 13.7027 27.5648 13.1053 28.2928 12.676C29.0301 12.2467 29.8888 12.032 30.8688 12.032C31.8394 12.032 32.6934 12.2467 33.4308 12.676C34.1681 13.1053 34.7421 13.7027 35.1528 14.468C35.5634 15.224 35.7688 16.1013 35.7688 17.1C35.7688 18.0987 35.5634 18.9807 35.1528 19.746C34.7421 20.502 34.1681 21.0947 33.4308 21.524C32.6934 21.9533 31.8394 22.168 30.8688 22.168ZM30.8688 20.558C31.8021 20.558 32.5441 20.25 33.0948 19.634C33.6548 19.018 33.9348 18.1733 33.9348 17.1C33.9348 16.0267 33.6548 15.182 33.0948 14.566C32.5441 13.95 31.8021 13.642 30.8688 13.642C29.9354 13.642 29.1888 13.95 28.6288 14.566C28.0688 15.182 27.7888 16.0267 27.7888 17.1C27.7888 18.1733 28.0688 19.018 28.6288 19.634C29.1888 20.25 29.9354 20.558 30.8688 20.558ZM36.791 22V12.2H38.919L42.041 18.416L45.121 12.2H47.249V22H45.457V15.238L42.727 20.6H41.313L38.583 15.238V22H36.791ZM48.5904 22V12.2H54.9884V13.642H50.3824V16.33H54.5684V17.73H50.3824V20.558H54.9884V22H48.5904Z" fill="#111111"/>
</svg>
