<svg width="118" height="20" viewBox="0 0 118 20" fill="none" xmlns="http://www.w3.org/2000/svg">
<path d="M4.228 15.168C3.50933 15.168 2.87933 15.042 2.338 14.79C1.79667 14.538 1.372 14.1787 1.064 13.712C0.765333 13.2453 0.611333 12.69 0.602 12.046H2.17C2.17933 12.5687 2.36133 13.012 2.716 13.376C3.07067 13.74 3.57 13.922 4.214 13.922C4.78333 13.922 5.22667 13.7867 5.544 13.516C5.87067 13.236 6.034 12.8813 6.034 12.452C6.034 12.1067 5.95467 11.8267 5.796 11.612C5.64667 11.3973 5.43667 11.22 5.166 11.08C4.90467 10.94 4.60133 10.814 4.256 10.702C3.91067 10.59 3.54667 10.4687 3.164 10.338C2.408 10.086 1.83867 9.75933 1.456 9.358C1.08267 8.95667 0.896 8.42933 0.896 7.776C0.886667 7.22533 1.01267 6.74467 1.274 6.334C1.54467 5.92333 1.918 5.606 2.394 5.382C2.87933 5.14867 3.444 5.032 4.088 5.032C4.72267 5.032 5.278 5.14867 5.754 5.382C6.23933 5.61533 6.61733 5.942 6.888 6.362C7.15867 6.77267 7.29867 7.25333 7.308 7.804H5.74C5.74 7.552 5.67467 7.314 5.544 7.09C5.41333 6.85667 5.222 6.66533 4.97 6.516C4.718 6.36667 4.41 6.292 4.046 6.292C3.57933 6.28267 3.192 6.39933 2.884 6.642C2.58533 6.88467 2.436 7.22067 2.436 7.65C2.436 8.03267 2.548 8.32667 2.772 8.532C2.996 8.73733 3.304 8.91 3.696 9.05C4.088 9.18067 4.536 9.33467 5.04 9.512C5.52533 9.67067 5.95933 9.862 6.342 10.086C6.72467 10.31 7.028 10.604 7.252 10.968C7.48533 11.332 7.602 11.794 7.602 12.354C7.602 12.8487 7.476 13.3107 7.224 13.74C6.972 14.16 6.594 14.5053 6.09 14.776C5.586 15.0373 4.96533 15.168 4.228 15.168ZM8.66447 15V5.2H10.1485V9.4H14.8945V5.2H16.3785V15H14.8945V10.618H10.1485V15H8.66447ZM22.3335 15.168C21.3628 15.168 20.5135 14.9533 19.7855 14.524C19.0575 14.0947 18.4882 13.502 18.0775 12.746C17.6668 11.9807 17.4615 11.0987 17.4615 10.1C17.4615 9.10133 17.6668 8.224 18.0775 7.468C18.4882 6.70267 19.0575 6.10533 19.7855 5.676C20.5135 5.24667 21.3628 5.032 22.3335 5.032C23.3042 5.032 24.1535 5.24667 24.8815 5.676C25.6095 6.10533 26.1742 6.70267 26.5755 7.468C26.9862 8.224 27.1915 9.10133 27.1915 10.1C27.1915 11.0987 26.9862 11.9807 26.5755 12.746C26.1742 13.502 25.6095 14.0947 24.8815 14.524C24.1535 14.9533 23.3042 15.168 22.3335 15.168ZM22.3335 13.838C23.0055 13.838 23.5888 13.6887 24.0835 13.39C24.5875 13.0913 24.9795 12.662 25.2595 12.102C25.5395 11.542 25.6795 10.8747 25.6795 10.1C25.6795 9.32533 25.5395 8.658 25.2595 8.098C24.9795 7.538 24.5875 7.10867 24.0835 6.81C23.5888 6.51133 23.0055 6.362 22.3335 6.362C21.6615 6.362 21.0735 6.51133 20.5695 6.81C20.0655 7.10867 19.6735 7.538 19.3935 8.098C19.1228 8.658 18.9875 9.32533 18.9875 10.1C18.9875 10.8747 19.1228 11.542 19.3935 12.102C19.6735 12.662 20.0655 13.0913 20.5695 13.39C21.0735 13.6887 21.6615 13.838 22.3335 13.838ZM28.2847 15V5.2H31.7147C32.48 5.2 33.1147 5.33067 33.6187 5.592C34.1227 5.844 34.496 6.194 34.7387 6.642C34.9907 7.08067 35.1167 7.58 35.1167 8.14C35.1167 8.672 34.9954 9.162 34.7527 9.61C34.5194 10.0487 34.1507 10.3987 33.6467 10.66C33.1427 10.9213 32.4987 11.052 31.7147 11.052H29.7687V15H28.2847ZM29.7687 9.834H31.6447C32.3447 9.834 32.844 9.68467 33.1427 9.386C33.4507 9.078 33.6047 8.66267 33.6047 8.14C33.6047 7.59867 33.4507 7.17867 33.1427 6.88C32.844 6.572 32.3447 6.418 31.6447 6.418H29.7687V9.834ZM36.0235 15V5.2H39.4535C40.2189 5.2 40.8535 5.33067 41.3575 5.592C41.8615 5.844 42.2349 6.194 42.4775 6.642C42.7295 7.08067 42.8555 7.58 42.8555 8.14C42.8555 8.672 42.7342 9.162 42.4915 9.61C42.2582 10.0487 41.8895 10.3987 41.3855 10.66C40.8815 10.9213 40.2375 11.052 39.4535 11.052H37.5075V15H36.0235ZM37.5075 9.834H39.3835C40.0835 9.834 40.5829 9.68467 40.8815 9.386C41.1895 9.078 41.3435 8.66267 41.3435 8.14C41.3435 7.59867 41.1895 7.17867 40.8815 6.88C40.5829 6.572 40.0835 6.418 39.3835 6.418H37.5075V9.834ZM43.7624 15V5.2H45.2464V15H43.7624ZM46.675 15V5.2H48.159L53.073 12.578V5.2H54.557V15H53.073L48.159 7.622V15H46.675ZM60.2421 15.168C59.3181 15.168 58.5108 14.958 57.8201 14.538C57.1294 14.118 56.5928 13.53 56.2101 12.774C55.8274 12.018 55.6361 11.136 55.6361 10.128C55.6361 9.12933 55.8321 8.24733 56.2241 7.482C56.6161 6.71667 57.1714 6.11933 57.8901 5.69C58.6181 5.25133 59.4768 5.032 60.4661 5.032C61.5861 5.032 62.5194 5.30267 63.2661 5.844C64.0128 6.38533 64.4981 7.132 64.7221 8.084H63.0421C62.8928 7.56133 62.5988 7.15067 62.1601 6.852C61.7214 6.55333 61.1568 6.404 60.4661 6.404C59.4394 6.404 58.6321 6.73533 58.0441 7.398C57.4561 8.06067 57.1621 8.97533 57.1621 10.142C57.1621 11.3087 57.4514 12.2187 58.0301 12.872C58.6088 13.5253 59.3788 13.852 60.3401 13.852C61.3108 13.852 62.0388 13.5767 62.5241 13.026C63.0188 12.4753 63.3081 11.7427 63.3921 10.828H60.7321V9.68H64.8901V15H63.5321L63.4061 13.558C63.0794 14.0713 62.6688 14.468 62.1741 14.748C61.6794 15.028 61.0354 15.168 60.2421 15.168ZM69.0985 15V5.2H70.5825V13.824H75.0345V15H69.0985ZM76.0717 15V5.2H77.5557V15H76.0717ZM82.2184 15.168C81.4997 15.168 80.8697 15.042 80.3284 14.79C79.7871 14.538 79.3624 14.1787 79.0544 13.712C78.7557 13.2453 78.6017 12.69 78.5924 12.046H80.1604C80.1697 12.5687 80.3517 13.012 80.7064 13.376C81.0611 13.74 81.5604 13.922 82.2044 13.922C82.7737 13.922 83.2171 13.7867 83.5344 13.516C83.8611 13.236 84.0244 12.8813 84.0244 12.452C84.0244 12.1067 83.9451 11.8267 83.7864 11.612C83.6371 11.3973 83.4271 11.22 83.1564 11.08C82.8951 10.94 82.5917 10.814 82.2464 10.702C81.9011 10.59 81.5371 10.4687 81.1544 10.338C80.3984 10.086 79.8291 9.75933 79.4464 9.358C79.0731 8.95667 78.8864 8.42933 78.8864 7.776C78.8771 7.22533 79.0031 6.74467 79.2644 6.334C79.5351 5.92333 79.9084 5.606 80.3844 5.382C80.8697 5.14867 81.4344 5.032 82.0784 5.032C82.7131 5.032 83.2684 5.14867 83.7444 5.382C84.2297 5.61533 84.6077 5.942 84.8784 6.362C85.1491 6.77267 85.2891 7.25333 85.2984 7.804H83.7304C83.7304 7.552 83.6651 7.314 83.5344 7.09C83.4037 6.85667 83.2124 6.66533 82.9604 6.516C82.7084 6.36667 82.4004 6.292 82.0364 6.292C81.5697 6.28267 81.1824 6.39933 80.8744 6.642C80.5757 6.88467 80.4264 7.22067 80.4264 7.65C80.4264 8.03267 80.5384 8.32667 80.7624 8.532C80.9864 8.73733 81.2944 8.91 81.6864 9.05C82.0784 9.18067 82.5264 9.33467 83.0304 9.512C83.5157 9.67067 83.9497 9.862 84.3324 10.086C84.7151 10.31 85.0184 10.604 85.2424 10.968C85.4757 11.332 85.5924 11.794 85.5924 12.354C85.5924 12.8487 85.4664 13.3107 85.2144 13.74C84.9624 14.16 84.5844 14.5053 84.0804 14.776C83.5764 15.0373 82.9557 15.168 82.2184 15.168ZM88.7731 15V6.404H85.8751V5.2H93.1411V6.404H90.2571V15H88.7731Z" fill="#111111"/>
<path d="M113.833 5.83335H111.333V5.00002C111.333 4.11596 110.982 3.26812 110.357 2.643C109.732 2.01788 108.884 1.66669 108 1.66669C107.116 1.66669 106.268 2.01788 105.643 2.643C105.018 3.26812 104.667 4.11596 104.667 5.00002V5.83335H102.167C101.946 5.83335 101.734 5.92115 101.577 6.07743C101.421 6.23371 101.333 6.44567 101.333 6.66669V15.8334C101.333 16.4964 101.597 17.1323 102.066 17.6011C102.534 18.07 103.17 18.3334 103.833 18.3334H112.167C112.83 18.3334 113.466 18.07 113.934 17.6011C114.403 17.1323 114.667 16.4964 114.667 15.8334V6.66669C114.667 6.44567 114.579 6.23371 114.423 6.07743C114.266 5.92115 114.054 5.83335 113.833 5.83335ZM106.333 5.00002C106.333 4.55799 106.509 4.13407 106.821 3.82151C107.134 3.50895 107.558 3.33335 108 3.33335C108.442 3.33335 108.866 3.50895 109.179 3.82151C109.491 4.13407 109.667 4.55799 109.667 5.00002V5.83335H106.333V5.00002ZM113 15.8334C113 16.0544 112.912 16.2663 112.756 16.4226C112.6 16.5789 112.388 16.6667 112.167 16.6667H103.833C103.612 16.6667 103.4 16.5789 103.244 16.4226C103.088 16.2663 103 16.0544 103 15.8334V7.50002H104.667V8.33335C104.667 8.55437 104.754 8.76633 104.911 8.92261C105.067 9.07889 105.279 9.16669 105.5 9.16669C105.721 9.16669 105.933 9.07889 106.089 8.92261C106.246 8.76633 106.333 8.55437 106.333 8.33335V7.50002H109.667V8.33335C109.667 8.55437 109.754 8.76633 109.911 8.92261C110.067 9.07889 110.279 9.16669 110.5 9.16669C110.721 9.16669 110.933 9.07889 111.089 8.92261C111.246 8.76633 111.333 8.55437 111.333 8.33335V7.50002H113V15.8334Z" fill="#111111"/>
</svg>
